<svg xmlns="http://www.w3.org/2000/svg" version="1.1" xmlns:xlink="http://www.w3.org/1999/xlink" xmlns:svgjs="http://svgjs.dev/svgjs" width="1440" height="560" preserveAspectRatio="none" viewBox="0 0 1440 560"><g mask="url(&quot;#SvgjsMask1000&quot;)" fill="none"><rect width="1440" height="560" x="0" y="0" fill="#1e3266"></rect><path d="M1512 560L0 560 L0 337.09Q51.44 316.53, 72 367.98Q107.69 283.67, 192 319.35Q234.42 289.77, 264 332.2Q300.53 248.73, 384 285.26Q460.85 242.11, 504 318.95Q555.11 250.06, 624 301.17Q652.88 258.06, 696 286.94Q751.45 270.39, 768 325.85Q834.55 272.4, 888 338.95Q961.14 292.09, 1008 365.23Q1023.58 308.81, 1080 324.39Q1121 245.39, 1200 286.39Q1241.97 256.36, 1272 298.32Q1368.13 274.44, 1392 370.57Q1434.4 292.98, 1512 335.38z" fill="#182f5d"></path><path d="M1512 560L0 560 L0 401.73Q35.72 365.45, 72 401.16Q155.19 364.36, 192 447.55Q218.76 354.31, 312 381.08Q381.16 330.24, 432 399.4Q473.54 368.94, 504 410.48Q553.07 387.55, 576 436.62Q584.16 372.78, 648 380.95Q672.93 333.88, 720 358.81Q777.57 344.38, 792 401.94Q843.22 381.16, 864 432.38Q890.35 338.73, 984 365.07Q1058.69 319.76, 1104 394.46Q1156.85 375.3, 1176 428.15Q1205.78 337.93, 1296 367.71Q1340.64 340.36, 1368 385Q1418.59 363.59, 1440 414.17Q1492.65 394.83, 1512 447.48z" fill="#25467d"></path><path d="M1488 560L0 560 L0 431.54Q77.93 437.47, 72 515.4Q106.94 430.33, 192 465.27Q206.25 407.52, 264 421.77Q307.12 392.89, 336 436.01Q421.49 401.5, 456 486.98Q480.33 439.31, 528 463.65Q554.97 418.62, 600 445.59Q661.7 435.29, 672 496.99Q712.83 417.81, 792 458.64Q836.76 383.4, 912 428.16Q957.45 401.62, 984 447.07Q1040.01 431.07, 1056 487.08Q1122.95 434.03, 1176 500.98Q1185.53 438.51, 1248 448.04Q1319.26 399.3, 1368 470.56Q1410.11 392.67, 1488 434.78z" fill="#356cb1"></path><path d="M1560 560L0 560 L0 563.05Q12.74 503.78, 72 516.52Q118.23 490.75, 144 536.97Q194.48 515.45, 216 565.93Q216.74 494.67, 288 495.41Q356.62 492.03, 360 560.66Q392.54 473.2, 480 505.74Q548.51 454.25, 600 522.77Q684.26 487.03, 720 571.29Q750.23 481.51, 840 511.74Q915.75 467.49, 960 543.23Q1032.74 495.97, 1080 568.7Q1116.81 485.5, 1200 522.31Q1269.65 471.96, 1320 541.62Q1392.41 494.03, 1440 566.44Q1505.26 511.7, 1560 576.95z" fill="white"></path></g><defs><mask id="SvgjsMask1000"><rect width="1440" height="560" fill="#ffffff"></rect></mask></defs></svg>