<svg id="visual" viewBox="0 0 900 600" width="900" height="600" xmlns="http://www.w3.org/2000/svg" xmlns:xlink="http://www.w3.org/1999/xlink" version="1.1"><path d="M0 79L9.3 79C18.7 79 37.3 79 56.2 82C75 85 94 91 112.8 116C131.7 141 150.3 185 169 190C187.7 195 206.3 161 225 129C243.7 97 262.3 67 281.2 53C300 39 319 41 337.8 49C356.7 57 375.3 71 394 96C412.7 121 431.3 157 450 172C468.7 187 487.3 181 506.2 164C525 147 544 119 562.8 106C581.7 93 600.3 95 619 94C637.7 93 656.3 89 675 88C693.7 87 712.3 89 731.2 100C750 111 769 131 787.8 138C806.7 145 825.3 139 844 128C862.7 117 881.3 101 890.7 93L900 85L900 0L890.7 0C881.3 0 862.7 0 844 0C825.3 0 806.7 0 787.8 0C769 0 750 0 731.2 0C712.3 0 693.7 0 675 0C656.3 0 637.7 0 619 0C600.3 0 581.7 0 562.8 0C544 0 525 0 506.2 0C487.3 0 468.7 0 450 0C431.3 0 412.7 0 394 0C375.3 0 356.7 0 337.8 0C319 0 300 0 281.2 0C262.3 0 243.7 0 225 0C206.3 0 187.7 0 169 0C150.3 0 131.7 0 112.8 0C94 0 75 0 56.2 0C37.3 0 18.7 0 9.3 0L0 0Z" fill="#81cfa5"></path><path d="M0 103L9.3 103C18.7 103 37.3 103 56.2 106C75 109 94 115 112.8 137C131.7 159 150.3 197 169 201C187.7 205 206.3 175 225 143C243.7 111 262.3 77 281.2 63C300 49 319 55 337.8 70C356.7 85 375.3 109 394 139C412.7 169 431.3 205 450 218C468.7 231 487.3 221 506.2 201C525 181 544 151 562.8 138C581.7 125 600.3 129 619 124C637.7 119 656.3 105 675 99C693.7 93 712.3 95 731.2 113C750 131 769 165 787.8 178C806.7 191 825.3 183 844 172C862.7 161 881.3 147 890.7 140L900 133L900 83L890.7 91C881.3 99 862.7 115 844 126C825.3 137 806.7 143 787.8 136C769 129 750 109 731.2 98C712.3 87 693.7 85 675 86C656.3 87 637.7 91 619 92C600.3 93 581.7 91 562.8 104C544 117 525 145 506.2 162C487.3 179 468.7 185 450 170C431.3 155 412.7 119 394 94C375.3 69 356.7 55 337.8 47C319 39 300 37 281.2 51C262.3 65 243.7 95 225 127C206.3 159 187.7 193 169 188C150.3 183 131.7 139 112.8 114C94 89 75 83 56.2 80C37.3 77 18.7 77 9.3 77L0 77Z" fill="#75ca9d"></path><path d="M0 139L9.3 139C18.7 139 37.3 139 56.2 145C75 151 94 163 112.8 189C131.7 215 150.3 255 169 259C187.7 263 206.3 231 225 195C243.7 159 262.3 119 281.2 100C300 81 319 83 337.8 103C356.7 123 375.3 161 394 189C412.7 217 431.3 235 450 248C468.7 261 487.3 269 506.2 251C525 233 544 189 562.8 167C581.7 145 600.3 145 619 142C637.7 139 656.3 133 675 135C693.7 137 712.3 147 731.2 169C750 191 769 225 787.8 232C806.7 239 825.3 219 844 203C862.7 187 881.3 175 890.7 169L900 163L900 131L890.7 138C881.3 145 862.7 159 844 170C825.3 181 806.7 189 787.8 176C769 163 750 129 731.2 111C712.3 93 693.7 91 675 97C656.3 103 637.7 117 619 122C600.3 127 581.7 123 562.8 136C544 149 525 179 506.2 199C487.3 219 468.7 229 450 216C431.3 203 412.7 167 394 137C375.3 107 356.7 83 337.8 68C319 53 300 47 281.2 61C262.3 75 243.7 109 225 141C206.3 173 187.7 203 169 199C150.3 195 131.7 157 112.8 135C94 113 75 107 56.2 104C37.3 101 18.7 101 9.3 101L0 101Z" fill="#68c694"></path><path d="M0 205L9.3 203C18.7 201 37.3 197 56.2 203C75 209 94 225 112.8 250C131.7 275 150.3 309 169 311C187.7 313 206.3 283 225 251C243.7 219 262.3 185 281.2 160C300 135 319 119 337.8 133C356.7 147 375.3 191 394 227C412.7 263 431.3 291 450 307C468.7 323 487.3 327 506.2 302C525 277 544 223 562.8 198C581.7 173 600.3 177 619 179C637.7 181 656.3 181 675 184C693.7 187 712.3 193 731.2 213C750 233 769 267 787.8 280C806.7 293 825.3 285 844 269C862.7 253 881.3 229 890.7 217L900 205L900 161L890.7 167C881.3 173 862.7 185 844 201C825.3 217 806.7 237 787.8 230C769 223 750 189 731.2 167C712.3 145 693.7 135 675 133C656.3 131 637.7 137 619 140C600.3 143 581.7 143 562.8 165C544 187 525 231 506.2 249C487.3 267 468.7 259 450 246C431.3 233 412.7 215 394 187C375.3 159 356.7 121 337.8 101C319 81 300 79 281.2 98C262.3 117 243.7 157 225 193C206.3 229 187.7 261 169 257C150.3 253 131.7 213 112.8 187C94 161 75 149 56.2 143C37.3 137 18.7 137 9.3 137L0 137Z" fill="#5ac18c"></path><path d="M0 235L9.3 238C18.7 241 37.3 247 56.2 251C75 255 94 257 112.8 276C131.7 295 150.3 331 169 336C187.7 341 206.3 315 225 282C243.7 249 262.3 209 281.2 183C300 157 319 145 337.8 157C356.7 169 375.3 205 394 244C412.7 283 431.3 325 450 341C468.7 357 487.3 347 506.2 323C525 299 544 261 562.8 244C581.7 227 600.3 231 619 228C637.7 225 656.3 215 675 213C693.7 211 712.3 217 731.2 239C750 261 769 299 787.8 311C806.7 323 825.3 309 844 288C862.7 267 881.3 239 890.7 225L900 211L900 203L890.7 215C881.3 227 862.7 251 844 267C825.3 283 806.7 291 787.8 278C769 265 750 231 731.2 211C712.3 191 693.7 185 675 182C656.3 179 637.7 179 619 177C600.3 175 581.7 171 562.8 196C544 221 525 275 506.2 300C487.3 325 468.7 321 450 305C431.3 289 412.7 261 394 225C375.3 189 356.7 145 337.8 131C319 117 300 133 281.2 158C262.3 183 243.7 217 225 249C206.3 281 187.7 311 169 309C150.3 307 131.7 273 112.8 248C94 223 75 207 56.2 201C37.3 195 18.7 199 9.3 201L0 203Z" fill="#4bbc83"></path><path d="M0 253L9.3 261C18.7 269 37.3 285 56.2 295C75 305 94 309 112.8 323C131.7 337 150.3 361 169 362C187.7 363 206.3 341 225 316C243.7 291 262.3 263 281.2 242C300 221 319 207 337.8 219C356.7 231 375.3 269 394 304C412.7 339 431.3 371 450 382C468.7 393 487.3 383 506.2 366C525 349 544 325 562.8 313C581.7 301 600.3 301 619 297C637.7 293 656.3 285 675 283C693.7 281 712.3 285 731.2 299C750 313 769 337 787.8 345C806.7 353 825.3 345 844 323C862.7 301 881.3 265 890.7 247L900 229L900 209L890.7 223C881.3 237 862.7 265 844 286C825.3 307 806.7 321 787.8 309C769 297 750 259 731.2 237C712.3 215 693.7 209 675 211C656.3 213 637.7 223 619 226C600.3 229 581.7 225 562.8 242C544 259 525 297 506.2 321C487.3 345 468.7 355 450 339C431.3 323 412.7 281 394 242C375.3 203 356.7 167 337.8 155C319 143 300 155 281.2 181C262.3 207 243.7 247 225 280C206.3 313 187.7 339 169 334C150.3 329 131.7 293 112.8 274C94 255 75 253 56.2 249C37.3 245 18.7 239 9.3 236L0 233Z" fill="#41b47b"></path><path d="M0 337L9.3 350C18.7 363 37.3 389 56.2 388C75 387 94 359 112.8 365C131.7 371 150.3 411 169 420C187.7 429 206.3 407 225 385C243.7 363 262.3 341 281.2 315C300 289 319 259 337.8 278C356.7 297 375.3 365 394 416C412.7 467 431.3 501 450 495C468.7 489 487.3 443 506.2 422C525 401 544 405 562.8 406C581.7 407 600.3 405 619 406C637.7 407 656.3 411 675 399C693.7 387 712.3 359 731.2 359C750 359 769 387 787.8 393C806.7 399 825.3 383 844 373C862.7 363 881.3 359 890.7 357L900 355L900 227L890.7 245C881.3 263 862.7 299 844 321C825.3 343 806.7 351 787.8 343C769 335 750 311 731.2 297C712.3 283 693.7 279 675 281C656.3 283 637.7 291 619 295C600.3 299 581.7 299 562.8 311C544 323 525 347 506.2 364C487.3 381 468.7 391 450 380C431.3 369 412.7 337 394 302C375.3 267 356.7 229 337.8 217C319 205 300 219 281.2 240C262.3 261 243.7 289 225 314C206.3 339 187.7 361 169 360C150.3 359 131.7 335 112.8 321C94 307 75 303 56.2 293C37.3 283 18.7 267 9.3 259L0 251Z" fill="#3da973"></path><path d="M0 463L9.3 479C18.7 495 37.3 527 56.2 535C75 543 94 527 112.8 527C131.7 527 150.3 543 169 541C187.7 539 206.3 519 225 510C243.7 501 262.3 503 281.2 498C300 493 319 481 337.8 488C356.7 495 375.3 521 394 539C412.7 557 431.3 567 450 563C468.7 559 487.3 541 506.2 530C525 519 544 515 562.8 521C581.7 527 600.3 543 619 549C637.7 555 656.3 551 675 541C693.7 531 712.3 515 731.2 509C750 503 769 507 787.8 510C806.7 513 825.3 515 844 506C862.7 497 881.3 477 890.7 467L900 457L900 353L890.7 355C881.3 357 862.7 361 844 371C825.3 381 806.7 397 787.8 391C769 385 750 357 731.2 357C712.3 357 693.7 385 675 397C656.3 409 637.7 405 619 404C600.3 403 581.7 405 562.8 404C544 403 525 399 506.2 420C487.3 441 468.7 487 450 493C431.3 499 412.7 465 394 414C375.3 363 356.7 295 337.8 276C319 257 300 287 281.2 313C262.3 339 243.7 361 225 383C206.3 405 187.7 427 169 418C150.3 409 131.7 369 112.8 363C94 357 75 385 56.2 386C37.3 387 18.7 361 9.3 348L0 335Z" fill="#399e6c"></path><path d="M0 565L9.3 567C18.7 569 37.3 573 56.2 570C75 567 94 557 112.8 559C131.7 561 150.3 575 169 583C187.7 591 206.3 593 225 587C243.7 581 262.3 567 281.2 561C300 555 319 557 337.8 563C356.7 569 375.3 579 394 585C412.7 591 431.3 593 450 593C468.7 593 487.3 591 506.2 585C525 579 544 569 562.8 568C581.7 567 600.3 575 619 581C637.7 587 656.3 591 675 591C693.7 591 712.3 587 731.2 586C750 585 769 587 787.8 587C806.7 587 825.3 585 844 579C862.7 573 881.3 563 890.7 558L900 553L900 455L890.7 465C881.3 475 862.7 495 844 504C825.3 513 806.7 511 787.8 508C769 505 750 501 731.2 507C712.3 513 693.7 529 675 539C656.3 549 637.7 553 619 547C600.3 541 581.7 525 562.8 519C544 513 525 517 506.2 528C487.3 539 468.7 557 450 561C431.3 565 412.7 555 394 537C375.3 519 356.7 493 337.8 486C319 479 300 491 281.2 496C262.3 501 243.7 499 225 508C206.3 517 187.7 537 169 539C150.3 541 131.7 525 112.8 525C94 525 75 541 56.2 533C37.3 525 18.7 493 9.3 477L0 461Z" fill="#359364"></path><path d="M0 601L9.3 601C18.7 601 37.3 601 56.2 601C75 601 94 601 112.8 601C131.7 601 150.3 601 169 601C187.7 601 206.3 601 225 601C243.7 601 262.3 601 281.2 601C300 601 319 601 337.8 601C356.7 601 375.3 601 394 601C412.7 601 431.3 601 450 601C468.7 601 487.3 601 506.2 601C525 601 544 601 562.8 601C581.7 601 600.3 601 619 601C637.7 601 656.3 601 675 601C693.7 601 712.3 601 731.2 601C750 601 769 601 787.8 601C806.7 601 825.3 601 844 601C862.7 601 881.3 601 890.7 601L900 601L900 551L890.7 556C881.3 561 862.7 571 844 577C825.3 583 806.7 585 787.8 585C769 585 750 583 731.2 584C712.3 585 693.7 589 675 589C656.3 589 637.7 585 619 579C600.3 573 581.7 565 562.8 566C544 567 525 577 506.2 583C487.3 589 468.7 591 450 591C431.3 591 412.7 589 394 583C375.3 577 356.7 567 337.8 561C319 555 300 553 281.2 559C262.3 565 243.7 579 225 585C206.3 591 187.7 589 169 581C150.3 573 131.7 559 112.8 557C94 555 75 565 56.2 568C37.3 571 18.7 567 9.3 565L0 563Z" fill="#31885d"></path></svg>